<svg xmlns="http://www.w3.org/2000/svg" viewBox="0 0 29.88 29.88"><defs><style>.cls-1{fill:#fff;}</style></defs><title>instagram</title><g id="Layer_2" data-name="Layer 2"><g id="OBJECTS"><path class="cls-1" d="M20.73,29.88H9.15A9.16,9.16,0,0,1,0,20.73V9.15A9.15,9.15,0,0,1,9.15,0H20.73a9.16,9.16,0,0,1,9.15,9.15V20.73A9.17,9.17,0,0,1,20.73,29.88ZM9.15,2.24A6.92,6.92,0,0,0,2.24,9.15V20.73a6.92,6.92,0,0,0,6.91,6.91H20.73a6.92,6.92,0,0,0,6.91-6.91V9.15a6.92,6.92,0,0,0-6.91-6.91Z"/><path class="cls-1" d="M14.94,22.5a7.56,7.56,0,1,1,7.56-7.56A7.57,7.57,0,0,1,14.94,22.5Zm0-12.83a5.27,5.27,0,1,0,5.27,5.27A5.27,5.27,0,0,0,14.94,9.67Z"/><path class="cls-1" d="M25.29,6.56a2,2,0,1,1-2-2A2,2,0,0,1,25.29,6.56Z"/></g></g></svg>