<svg xmlns="http://www.w3.org/2000/svg" viewBox="0 0 48 48"><defs><style>.cls-1{fill:#fff;}</style></defs><title>Asset 5</title><g id="Layer_2" data-name="Layer 2"><g id="OBJECTS"><path class="cls-1" d="M26.25,31.46c-.85.78-1.42,1.25-1.47,1.29l-.78.64-.78-.64s-.62-.51-1.47-1.29a28.73,28.73,0,0,0-6.18.93,5.65,5.65,0,0,0-2.37,1.09,6.84,6.84,0,0,0,3.11,1.29,34.13,34.13,0,0,0,7.69.79,34.13,34.13,0,0,0,7.69-.79,6.84,6.84,0,0,0,3.11-1.29,5.82,5.82,0,0,0-2.39-1.1A29.21,29.21,0,0,0,26.25,31.46Z"/><path class="cls-1" d="M24,19.54A2.55,2.55,0,1,0,21.45,17,2.55,2.55,0,0,0,24,19.54Z"/><path class="cls-1" d="M24,30.15a41.56,41.56,0,0,0,3.83-3.88c2.9-3.34,4.43-6.34,4.43-8.68V17a8.26,8.26,0,0,0-16.52,0v.6c0,2.34,1.54,5.35,4.45,8.71A43.38,43.38,0,0,0,24,30.15ZM24,12a5,5,0,1,1-5,5A5,5,0,0,1,24,12Z"/><path class="cls-1" d="M38.14,0H9.86A9.85,9.85,0,0,0,0,9.86V38.14A9.85,9.85,0,0,0,9.86,48H38.14A9.85,9.85,0,0,0,48,38.14V9.86A9.85,9.85,0,0,0,38.14,0ZM32.89,37A34.9,34.9,0,0,1,24,38a34.9,34.9,0,0,1-8.89-1c-3-.81-4.46-2-4.46-3.54,0-2.89,5.3-3.94,8.77-4.32l-1.11-1.23c-3.35-3.87-5-7.35-5-10.34V17a10.74,10.74,0,0,1,21.48,0v.6c0,3-1.7,6.47-5.05,10.34l-1.11,1.23c3.49.38,8.77,1.43,8.77,4.32C37.35,35,35.85,36.21,32.89,37Z"/></g></g></svg>