<?xml version="1.0" encoding="utf-8"?>
<!-- Generator: Adobe Illustrator 24.0.0, SVG Export Plug-In . SVG Version: 6.00 Build 0)  -->
<svg version="1.1" id="Layer_1" xmlns="http://www.w3.org/2000/svg" xmlns:xlink="http://www.w3.org/1999/xlink" x="0px" y="0px"
	 viewBox="0 0 262.1 75" style="enable-background:new 0 0 262.1 75;" xml:space="preserve">
<style type="text/css">
	.st0{fill:#7A0033;}
	.st1{fill:#FFFFFF;}
</style>
<title>Asset 1</title>
<path class="st0" d="M100.8,38.9c0-1.5,0-2.9,0-4.2c0-0.9-0.6-1.6-1.4-1.8c-0.6-0.2-1.3-0.2-1.9-0.2c-3.3,0-6.6,0-9.9,0
	c-0.1-0.4-0.1-0.7-0.2-1.1c0-1.4,0-2.8,0-4.3c0-0.6,0.2-1.2,0.6-1.6c4.4-4.4,8.8-8.8,13.2-13.2c0.2-0.2,0.4-0.3,0.8-0.6
	c0.1,0.4,0.1,0.7,0.1,1.1c0,2.2,0,4.5,0,6.7c0,0.7-0.2,1.3-0.7,1.7c-1.2,1.2-2.4,2.4-3.6,3.6c-0.4,0.4-0.7,0.8-1.3,1.4
	c1.4,0,2.5-0.1,3.7,0c1.2,0.1,2.4,0.3,3.5,0.6c2,0.6,3.4,2.5,3.4,4.6c0.1,2.3,0.1,4.6,0,6.9c-0.1,0.5-0.2,1.1-0.5,1.5
	c-0.8,1.4-1.7,2.7-2.4,4.1c-0.3,0.9-1.2,1.4-2.2,1.3c-6.4,0-12.8,0-19.2-0.1c-2.2,0-3.9,0.3-5.4,2.1c-1.6,2-3.6,3.7-5.4,5.5
	c-0.4,0.5-0.9,0.8-1.5,0.8c-2.5,0-5,0-7.5,0c-0.1,0-0.2-0.1-0.4-0.2c0.5-0.5,0.8-0.9,1.3-1.3c3.9-3.9,7.9-7.9,11.8-11.8
	c1-0.8,1.5-2,1.3-3.3c-0.1-1.3,0-2.7,0-4c-1.2-0.4-7.5-0.5-9.2-0.1c-0.1,1.5-0.1,3,0,4.5c0.1,0.7,0.6,1.2,1.2,1.3
	c0.7,0.2,1.5,0.2,2.3,0.3c1.1-0.1,2.3,0,3.4,0.2c-0.4,0.4-0.6,0.7-0.9,1c-1.3,1.3-2.6,2.5-3.8,3.9s-2.6,1.4-4.1,1.1
	c-3.3-0.6-4.4-3-4.5-5.8c-0.1-2,0-4,0-6.1c0-0.4,0.1-0.9,0.3-1.2c1-1.7,2.1-3.3,3.1-5c0.2-0.5,0.8-0.8,1.3-0.8c3.7,0,7.4,0,11.1,0
	c2.7,0,5,1.7,5.8,4.2c0.2,0.6,0.2,1.3,0.2,1.9c0,2,0,4,0,6.2c0.5,0.1,1,0.2,1.4,0.3c5.1,0,10.2,0,15.2,0
	C100.2,39,100.5,39,100.8,38.9z"/>
<path class="st0" d="M165.5,30.6c0.2,1.1,0.4,2,0.5,2.9c0.2,1.1,0.4,2.3,0.6,3.4c0.3,1.6,0.8,2.1,2.6,2.2c1.5,0.1,3.1,0,4.6,0h3.2
	c-1.2,2-2.3,3.9-3.5,5.7c-0.2,0.3-0.5,0.5-0.9,0.5c-2.1,0-4.1,0-6.2-0.2c-1.8-0.1-3.4-1.1-4.4-2.5c-0.2-0.2-0.4-0.4-0.6-0.5
	c-0.6,0.9-1.1,1.7-1.6,2.5c-0.3,0.5-0.6,0.8-1.1,0.8c-2-0.1-4,0-6-0.2c-1.9-0.1-3.6-1.1-4.7-2.7c-0.6,0.5-1,1.1-1.3,1.8
	c-0.3,0.8-1.1,1.3-1.9,1.2c-1.7-0.1-3.4,0-5.1-0.1c-1.1-0.1-2.3-0.3-3.3-0.7c-2.7-1-3.8-3.2-4.2-5.9c0-0.4,0-0.8,0-1.2
	c0-7,0-14.1,0-21.1c-0.1-0.9,0.4-1.8,1.3-2.1c1.6-0.7,3.2-1.6,5-2.5c0,0.8,0,1.4,0,2c0,7.3,0.1,14.6,0,22c0,2.7,0.9,3.3,3.3,3.3h4.9
	c-0.2-1.2-0.3-2.2-0.4-3.2c-0.3-1.7-0.3-1.7,1.1-2.6l4.5-2.7c0.3,1.9,0.6,3.6,0.8,5.3c0.4,2.7,0.7,3.1,3.4,3.2
	c1.4,0.1,2.9,0,4.5-0.1c-0.2-1.1-0.3-2.1-0.5-3c0-0.3-0.1-0.5-0.2-0.8c-0.2-0.6,0.1-1.3,0.8-1.6C162.2,32.7,163.7,31.7,165.5,30.6z"
	/>
<path class="st0" d="M32.6,45.2c-3,0.3-30.8,0.2-32.2-0.1c1.1-2.1,2.3-4.1,3.5-6h26c0.2-1.5,0.3-3.1,0.1-4.6c0-0.8-0.6-1.5-1.5-1.6
	c-0.7-0.1-1.5-0.2-2.3-0.3c-2.6,0-5.1,0-7.7,0h-1.8c-0.3-0.7-0.4-1.5-0.3-2.3c0-1.4-0.3-2.9,0.2-4s1.7-1.9,2.6-2.9l10.2-10.2
	c0.4-0.4,0.8-0.8,1.5-1.4c0,1.1,0,1.9,0,2.7c0,1.6,0,3.2,0,4.8c0.1,1-0.3,1.9-1,2.6c-1.4,1.3-2.8,2.8-4.2,4.2
	c0.6,0.2,1.2,0.3,1.8,0.2c1.4,0.1,2.7,0.1,4.1,0.3c2.7,0.5,4.7,2.8,4.6,5.6c0,2,0,4,0,6.1c0,0.4-0.1,0.9-0.3,1.2
	C34.9,41.5,33.7,43.4,32.6,45.2z"/>
<path class="st0" d="M40,39c4.3,0.3,11.5,0.2,12.9-0.2c0-1.4,0.1-2.8,0-4.2c0-0.9-0.7-1.7-1.6-1.8c-0.5-0.1-1.1-0.1-1.6-0.2
	c-1.5,0-3,0-4.4,0c-0.4,0-0.7-0.1-1.3-0.1l3.7-6.1c2.3,0.1,4.7-0.3,7.1,0.3c2.7,0.5,4.6,2.9,4.5,5.6c0,2,0,3.9,0,5.9
	c0,0.6-0.2,1.2-0.5,1.7c-1,1.5-1.9,3.1-2.8,4.6c-0.2,0.5-0.7,0.9-1.3,0.8c-5.9,0-11.8,0-17.7,0c-0.2,0-0.4-0.1-0.6-0.2
	C37.5,43,38.9,41,40,39z"/>
<path class="st0" d="M114.7,32.7c1.2-2.1,2.3-3.9,3.4-5.6c0.2-0.3,0.5-0.5,0.9-0.6c2.3,0,4.6-0.3,6.8,0.3c1.7,0.4,3.1,1.5,3.8,3.1
	c0.2,0.5,0.4,1.1,0.4,1.7c0.1,2.3,0.1,4.6,0,6.9c0,0.5-0.2,1.1-0.5,1.5c-0.8,1.4-1.7,2.8-2.5,4.2c-0.4,0.8-1.2,1.3-2,1.2
	c-4-0.1-8,0-11.9,0h-5.7c0-0.3,0.1-0.6,0.2-0.9c0.9-1.5,1.9-3.1,2.8-4.6c0.3-0.6,0.9-1,1.6-0.9c3.7,0,7.4,0,11.1-0.1
	c0.3,0,0.5-0.1,0.8-0.1c0-1.4,0.1-2.8,0-4.2c0-0.8-0.6-1.5-1.4-1.6c-0.6-0.1-1.3-0.2-1.9-0.2C118.7,32.7,116.9,32.7,114.7,32.7z"/>
<path class="st0" d="M205.3,19c-1.1,2.9-2.3,5.7-3.1,8.5s-1.1,5.9-1.6,8.9h-12.8c-0.1-0.2-0.1-0.4-0.1-0.6c0.1-3.3,0.7-6.5,1.6-9.6
	c0.8-2.3,1.9-4.4,2.8-6.6c0.2-0.5,0.6-0.8,1.1-0.7c3.8,0,7.6,0,11.5,0C205,18.8,205.2,18.9,205.3,19z"/>
<path class="st0" d="M262.1,36.5c-4.5,0.2-8.8,0-13.3,0.1c0-6.3-1.9-11.9-4.5-17.5c0.3-0.1,0.7-0.1,1-0.1c3.5,0,7,0,10.5,0
	c1-0.1,1.9,0.5,2.2,1.5c2.2,4.4,3.4,9.2,3.8,14.1C261.9,35,262,35.6,262.1,36.5z"/>
<path class="st0" d="M248.8,37.6h13c0.1,2,0,4.1-0.4,6.1c-0.7,3.6-1.9,7.2-3.5,10.5c-0.3,0.7-0.9,1.1-1.6,1c-3.6,0-7.3,0-11,0
	c-0.3,0-0.5-0.1-0.8-0.1c1.1-2.9,2.2-5.6,3.1-8.5C248.4,43.7,248.8,40.6,248.8,37.6z"/>
<path class="st0" d="M200.9,37.6c0.1,0.7,0.2,1.3,0.2,2c0.2,3.3,0.8,6.5,2,9.6c0.3,0.7,0.3,1.5,0.1,2.2c-0.4,1.2-0.6,2.4-0.9,3.7
	c-0.2,0.1-0.4,0.1-0.7,0.1c-2.7,0-5.4,0-8,0c-0.7,0-1.3-0.4-1.5-1c-2.4-4.4-3.8-9.3-4.1-14.3c0-0.7-0.1-1.5-0.1-2.3L200.9,37.6z"/>
<path class="st0" d="M223.7,0c-2,1.5-3.7,2.9-5.5,4.2c-4.6,3.5-8.5,7.9-11.5,12.8l-0.5,0.8h-12.8C198.3,8.6,210.2,0.2,223.7,0z"/>
<path class="st0" d="M243.7,56.3h12.8c-4.7,8.7-16.4,17.7-30.2,17.7c1.3-1,2.4-1.9,3.5-2.8C234.6,67.6,240.6,62.1,243.7,56.3z"/>
<path class="st0" d="M226.6,0c12.5,0.2,24.7,8.1,30,17.8h-12.9c-2-3.7-4.6-7-7.7-9.8C232.9,5.2,229.7,2.7,226.6,0z"/>
<path class="st0" d="M193.3,56.2c3.1,0,5.9,0,8.7,0c0.3,0,0.5,0.1,0.8,0.2c0.9,0.7,2.1,1.1,3.2,1.1c0.6,0.1,1.2,0.4,1.5,1
	c2.3,3.6,5.1,6.8,8.3,9.6c2.3,2,4.7,3.9,7.3,5.5c0.1,0.1,0.2,0.2,0.3,0.4C213,74.2,200,67.7,193.3,56.2z"/>
<path class="st0" d="M224.9,73.3c-3.7-4.6-6.2-9.7-8.8-15.1c1.6-0.1,3-0.2,4.4-0.3c2.3-0.2,4.6-0.2,6.9-0.4c0.8-0.1,1.7-0.1,2.1-1
	c0.1-0.2,0.4-0.3,0.7-0.3c0.9-0.1,1.7-0.2,2.4-0.3c1.5,1.3,1.2,2.5,0.5,3.9c-2.1,4.5-4.5,8.8-7.4,12.9
	C225.4,72.8,225.2,72.9,224.9,73.3z"/>
<path class="st0" d="M216,16.7c2.2-5.7,5.2-11,8.9-15.9c3.9,5.2,7.1,10.9,9.4,17c-0.6,0-1,0.1-1.4,0.1c-1,0-2,0-2.9,0
	c-1,0.1-2-0.2-2.7-0.8c-1.9-1.4-4-2.5-6.3-3c-1-0.3-1.3-0.1-1.4,0.9c-0.1,0.6-0.2,1.3-0.4,1.9c-0.1,0.7-0.7,1.2-1.4,1.2
	c-0.3,0-0.6-0.2-0.9-0.4C216.6,17.3,216.3,17,216,16.7z"/>
<path class="st0" d="M247.7,36.5h-7.5c-0.4,0-0.9,0-1.4-0.1c-0.3-2.9-0.5-5.9-1-8.7s-1.3-5.7-2-8.7c0.2-0.1,0.5-0.2,0.7-0.2
	c1.9,0,3.7,0,5.6,0c0.6-0.1,1.2,0.3,1.4,0.9c1.9,3.8,3.2,7.9,3.9,12C247.7,33.4,247.8,35,247.7,36.5z"/>
<path class="st0" d="M207.1,36.5H202c0.1-1.1,0.1-2.2,0.2-3.2c0.4-3.6,1.3-7.1,2.6-10.4c0.4-1,0.9-2,1.4-3c0.2-0.7,0.8-1.1,1.5-1
	c0.9,0,1.9,0,2.8,0c0.6,0,1.1,0.3,1.3,0.8c1,1.7,1.6,3.5,0.9,5.5c0,0.1,0,0.2,0,0.3c-0.1,1.1-0.3,2.3-0.8,3.3
	c-0.7,0.9-1.6,1.6-2.6,2.2c-0.3,0.3-0.6,0.6-1,0.9C206.9,33,206.2,34.5,207.1,36.5z"/>
<path class="st0" d="M139.1,67.3l-0.4,1.5c-0.4,1.6,0.1,2.5,1.8,2.8c1.5,0.4,3.1-0.1,4.2-1.2c0.1-0.1,0.2-0.3,0.3-0.4
	c0-0.2,0-0.3,0-0.5c-0.5,0-0.9,0-1.4,0c-1,0-1.8-0.7-1.8-1.7c0-0.1,0-0.1,0-0.2c0-1.1,0.4-2.2,1.3-2.9c0.5-0.6,1.3-0.7,1.9-0.2
	c0.2,0.1,0.3,0.3,0.4,0.5c1,1.7,1.3,3.7,0.6,5.5c-0.2,0.5-0.4,0.9-0.6,1.3c1.6,1.4,3.8,0.7,5.1-1.5c-0.6-0.1-1.1-0.2-1.6-0.3
	c-1.2-0.3-1.5-0.9-1.4-2.2c0.1-1,0.5-1.9,1.2-2.6c0.5-0.6,1.3-0.6,1.8-0.2c0.1,0.1,0.2,0.2,0.3,0.3c0.3,0.3,0.5,0.7,0.7,1.1
	c0.2,0.4,0.3,0.8,0.5,1.3c0.4,0,0.8,0.1,1.2,0.1c3.1,0,6.2,0,9.3,0c1.4,0,2.8,0.1,3.3-1.9c0.6,1.3,1.1,2.1,2.5,1.9s1.2-1.5,2-2.6
	l0.2,2c0.7,0.5,1.6,0.7,2.4,0.4c0.6-0.9-1-2.1,0.5-2.9c0.5,0.5,0.7,1.2,0.6,1.9c0,0.9-0.1,1.7-0.3,2.6c-0.2,0.6-0.7,0.9-1.3,0.8
	c-0.9-0.1-1.7-0.3-2.6-0.5c-2,1-2.6,0.7-4.2-0.3c-1.3,0.9-1.3,0.9-3.1,0.9h-10.5c-0.3,0.7-0.5,1.3-0.8,1.8c-0.4,0.9-1.1,1.6-2.1,2
	c-0.7,0.3-1.6,0.1-2.2-0.3c-0.6-0.4-1.3-0.8-1.7-1.1c-1.1,0.5-2.2,0.9-3.3,1.3c-0.7,0.2-1.4,0.2-2.1,0c-1.4-0.1-2.5-1.4-2.4-2.8
	c0-0.1,0-0.1,0-0.2c0.2-1.1,0.6-2.2,1-3.3C138.6,67.6,138.8,67.5,139.1,67.3z M142.8,67.2c0.6,0.3,1.2,0.7,1.9,0.1
	C143.9,66,143.6,66,142.8,67.2z M150.6,67.9c-0.6-1-0.7-1-1.2-1s-0.7,0.3-0.5,0.8C149.4,68.1,149.9,68.4,150.6,67.9L150.6,67.9z"/>
<path class="st0" d="M238.5,43l0.4-5.2c3-0.3,6-0.4,9.1-0.1l-0.2,2.2c-0.4,5.1-1.8,10-4.1,14.5c-0.2,0.5-0.7,0.9-1.2,0.9
	c-2.1,0-4.1,0-6.5,0c0.4-0.4,0.6-0.6,0.8-0.7c2.5-1.9,4.2-4.7,4.8-7.7c0.1-0.5,0.3-0.9,0.6-1.3c0.2-0.4,0.5-0.7,0.8-1.1
	C241.8,42.7,240.1,43.2,238.5,43z"/>
<path class="st0" d="M217.2,22.8c-0.6-0.8-1.6-1.2-2.6-0.9c-0.7,0.2-1.1-0.1-1.3-0.9s0-0.9,0.8-1.2c1-0.4,2-0.5,3-0.4
	c2.4,0.3,4.7,1,6.9,2.1c1.3,0.7,2.7,1.2,4.1,1.7c0.7,0.2,1.4,0.2,2.1,0.1c1-0.2,1.3-0.9,0.9-1.8c-0.3-0.5-0.5-0.9-0.9-1.4
	c-0.2-0.4-0.5-0.7-0.8-1.1h5.3c2,5.6,3,11.5,2.9,17.4l-1.4,0.1c-0.4-0.6-0.7-1.2-1.1-1.7c-0.4-0.6-0.6-1.3-0.3-2
	c0.5-1.8-0.3-2.9-2.2-3.3c-0.5-0.1-0.9-0.4-1.1-0.8c-2.4-4.4-6.3-6.5-11.1-7l-3-0.3L217.2,22.8L217.2,22.8z"/>
<path class="st0" d="M112.4,68c0.4,0,0.8,0.1,1.3,0.1c3.1,0,6.2,0,9.3,0c1.1,0.1,2.2-0.4,2.9-1.2c0.3-0.4,0.6-0.7,1-1.1
	c0.6-0.6,1.5-0.6,2.1,0c0,0,0.1,0.1,0.1,0.1c0.2,0.2,0.3,0.3,0.4,0.5c0.8,1,0.8,2.3,0.1,3.3c-0.9,0.7-2,0.9-3.1,0.4
	c-0.3-0.2-0.7-0.4-1-0.6c-0.8,0.9-1.8,0.8-2.8,0.8h-10.3c-0.5,0.9-1,1.8-1.5,2.7c-0.7,1.2-2.2,1.7-3.4,1c-0.1-0.1-0.2-0.1-0.3-0.2
	c-0.6-0.3-1.1-0.7-1.7-1.2c-1,0.2-1.8,1.1-3,0.6c-0.9-0.3-1.7-0.8-2.3-1.5l0.9,0.1c1.6,0.1,3.1-0.7,4-2c0.5-0.6,0.5-1.4,0-2
	c-0.4-0.5-0.8-0.9-1.2-1.4c0.2-0.3,0.3-0.6,0.5-0.8s0.3-0.4,0.6-0.7c1.8,2,2.1,4.9,0.7,7.2c2.3,1.1,4.1,0.5,5.1-1.7
	c-0.5-0.1-1-0.1-1.4-0.3c-1-0.1-1.6-1-1.5-2c0,0,0,0,0,0c0-1,0.4-1.9,1.1-2.7c0.4-0.6,1.3-0.8,2-0.4c0.2,0.1,0.4,0.3,0.5,0.6
	C111.7,66.4,112.1,67.2,112.4,68z M128.8,68.2c-0.3-0.6-0.6-1.1-1.3-1.1c-0.4,0-0.7,0.3-0.8,0.7c0,0.1,0,0.2,0,0.3
	C127.3,68.4,128.1,68.5,128.8,68.2L128.8,68.2z M111,67.7c-0.4-0.3-0.9-0.5-1.3-0.7c-0.1,0-0.5,0.2-0.6,0.4s0.2,0.5,0.3,0.6
	C109.9,68.3,110.4,68.3,111,67.7z"/>
<path class="st0" d="M50.7,72.6c0.5,0,1.1,0,1.6,0c1.4,0,2.8-0.8,3.4-2.1c-0.7-0.1-1.2-0.2-1.7-0.3c-0.9-0.1-1.5-1-1.4-1.9
	c0,0,0,0,0,0c0-1,0.4-2,1.1-2.7c0.4-0.7,1.4-0.9,2-0.4c0.2,0.2,0.4,0.4,0.5,0.6c0.2,0.3,0.4,0.7,0.5,1c0.1,0.3,0.2,0.7,0.4,1.2
	c0.4,0,0.9,0.1,1.3,0.1h9.2c2.3,0,2.3,0,3.6-1.6c0.2,1.1,1.2,1.8,2.3,1.7c0.1,0,0.1,0,0.1,0c1.4-0.2,1.1-1.6,1.8-2.3
	c0.4,0.7,0.4,0.7,0.3,1.6c0.6,0.7,1.6,0.9,2.5,0.5c0.4-0.9-1.1-2,0.4-2.8c0.2,0.3,0.4,0.6,0.5,0.9c0.1,0.9,0.1,1.7,0.1,2.6
	c-0.1,1.4-0.7,1.8-2.1,1.7c-0.7-0.1-1.4-0.3-2.1-0.6c-1.3,1-3.2,0.8-4.3-0.4c-0.7,0.8-1.8,1.2-2.8,1.1c-3.6,0-7.2,0-10.8,0
	c-0.3,0.8-0.7,1.5-1.1,2.2C54.8,74.7,52.5,75,50.7,72.6L50.7,72.6z M54,67.8c0.5,0.3,1.1,0.4,1.6,0.3c-0.1-0.7-0.5-1.1-1.1-1.1
	C54,67,53.8,67.3,54,67.8z"/>
<path class="st0" d="M227.4,71.6c0.1-0.4,0.2-0.8,0.4-1.2c2.1-2.9,4-6.1,5.5-9.4c0.7-1.5,1.4-3.1,2.1-4.7h7.1
	c-0.1,0.4-0.2,0.8-0.4,1.1c-1,1.4-2,2.7-3.1,4c-2.9,3.4-6.2,6.5-9.8,9.1c-0.4,0.3-0.9,0.7-1.3,1C227.8,71.6,227.6,71.6,227.4,71.6z"
	/>
<path class="st0" d="M227.1,49c0.1-0.3,0.2-0.7,0.3-1c0.4-0.9,1-1.7,1.4-2.6c0.5-0.8,0.2-1.7-0.5-2.2c-0.2-0.1-0.4-0.2-0.6-0.2
	c-2.2-0.7-4.1-0.3-4.9,2.1c-0.3,0.8-0.5,1.7-0.7,2.5c-0.1,0.6-0.5,1.1-1.1,1.3c-0.4-0.4-0.5-1.1-0.2-1.6c0.3-1.2,0.8-2.3,1.3-3.4
	c1-2.3,3.5-3.6,5.9-2.9c1.4,0.4,3,0.1,4.1-0.9c0.8-0.5,1.5-1.1,2.2-1.7c0.8-1,2.2-1.3,3.4-0.8c0.3,1.7,0.2,3.6-0.4,5.2
	c-0.6,1.4-0.9,2.8-1.1,4.3c-0.2,1-0.4,1.9-0.7,2.9c-0.1,0.4-0.3,0.7-0.6,1c-0.2,0.2-0.6,0.3-0.9,0.2c-0.3-0.2-0.4-0.5-0.4-0.8
	c0.1-0.5,0.2-0.9,0.5-1.4c0.4-0.9,1-1.7,1.4-2.6c0.3-0.6,0.4-1.3,0.4-2c0-1.2-1-2.1-2.2-2.1c-0.4,0-0.8,0.1-1.2,0.4
	c-0.9,0.6-1.7,1.4-2.3,2.3c-0.5,0.8-1,1.7-1.4,2.6c-0.3,0.6-0.7,1.2-1.3,1.5L227.1,49z"/>
<path class="st0" d="M242.5,17.8h-6.9c-1.2-2.7-2.4-5.4-3.8-8.1s-2.9-5-4.4-7.5C233,6.7,238.7,11.1,242.5,17.8z"/>
<path class="st0" d="M149.4,53.5l3.9-3.8c1.5,1.2,2.8,2.6,4.1,4l-4,4.1l-2.1-2l-1.9-1.9c-1.6,1-2.5,2.6-4.1,3.8
	c-1.4-1.2-2.6-2.6-4-4c0.7-0.7,1.3-1.3,2-2s1.1-1.3,1.8-2.1L149.4,53.5z"/>
<path class="st0" d="M10.2,70.3c-1.2,4-4.8,4.9-7.7,4.6c-1.3-0.1-2.3-1-2.4-2.3c-0.5-2,0.3-4.1,2-5.2c-0.3,0.9-0.5,1.6-0.7,2.4
	c-0.4,1,0,2.2,1.1,2.6c0.2,0.1,0.4,0.1,0.6,0.2c1.9,0.3,3.8,0,5.4-0.8l-2.7-1.5C6,68.9,6,68.8,7.1,68.6c1.4-0.3,2.8-0.4,4.2-0.5
	c0.9-0.1,1.9,0,2.8-0.1c0.5-0.1,1-0.2,1.5-0.3c-1-1.6-2.8-1.8-4.1-2.6c-0.2-1,0.4-2,1.4-2.3c1.3-0.8,2.7-1.3,4.2-1.7
	c0,1.5-0.1,1.7-1.3,2c-0.7,0.2-1.4,0.5-2.4,0.8c0.4,0.2,0.8,0.5,1.2,0.8c0.6,0.4,1.2,0.9,1.7,1.5c0.8,1.1,0.5,2.5-0.5,3.3
	c-0.2,0.1-0.4,0.3-0.6,0.3c-0.8,0.2-1.6,0.4-2.4,0.4C11.9,70.4,11.1,70.3,10.2,70.3z"/>
<path class="st0" d="M208.7,58c1.1-0.5,2.2,0.2,3.4,0.1s2.2,0,3.2,0c0.9,2.5,2.1,4.8,3.5,7c1.3,2.2,2.6,4.3,4.1,6.6
	C218.9,70.2,209.6,61.3,208.7,58z"/>
<path class="st0" d="M202.1,37.5c1.9,0,3.8-0.1,5.6,0c0.6,0,1.4,1.1,1.3,2c0,1-0.1,1.9-0.4,2.9c-0.8,2.4-2.1,4.7-3.9,6.6
	c-0.2,0.1-0.4,0.2-0.6,0.3C202.8,45.5,202.1,41.6,202.1,37.5z"/>
<path class="st0" d="M222.5,2.1l-7.4,13.4c-0.6-0.5-1.1-1-1.7-1.5c-1.1-0.7-1.9-0.4-2.1,0.9c-0.1,0.5-0.2,1-0.2,1.4
	c0,0.5,0.1,0.9,0.2,1.4h-3.9C211.1,11.3,216.3,6.4,222.5,2.1z"/>
<path class="st0" d="M22,62.9c0.4,1.1,0.7,1.8,0.9,2.6s0.3,1.6,0.5,2.5c4.1,0,8.1,0,12.1,0c0.2,0,0.5-0.2,0.8-0.4l-1-1.6l0.8-1.2
	c1,1,1.4,2.5,1,3.8c-0.3,1-1.2,1.6-2.2,1.7c-0.5,0-1,0-1.5,0h-7.9c-0.8,0.1-1.5,0-2.2-0.3c-0.2-0.1-0.6,0-0.9,0
	c-1,0.2-1.9,0.4-2.9,0.5c-0.3,0-0.7,0-1-0.1c-0.9-0.2-1.1-0.4-1.1-1.3c0.1-0.6,0.2-1.1,0.3-1.7c1.4,1.3,2.7,0.9,4.3,0.4l-1.3-3.1
	L22,62.9z"/>
<path class="st0" d="M88.1,68.2c-0.1,0.5-0.2,0.9-0.3,1.4c-0.2,0.7,0.3,1.5,1,1.6c0.1,0,0.2,0,0.4,0c1.1,0.2,2.2,0,3.1-0.7
	c0.8-0.8,0.9-1.1,0.5-2.1c-0.1-0.3-0.2-0.6-0.4-1l1-1.3c0.6,1.1,1.1,2,2.5,1.8s1.3-1.4,1.7-2.4c1,0.5,0.1,1.3,0.5,1.8
	c0.7,0.6,1.7,0.8,2.5,0.4c0-0.4,0-0.9-0.1-1.1c-0.7-0.8-0.1-1.2,0.5-1.8c0.7,1.3,0.9,2.8,0.4,4.2c-0.1,0.8-0.8,1.3-1.6,1.2
	c0,0-0.1,0-0.1,0c-0.8-0.1-1.6-0.3-2.3-0.6c-1,0.6-2.2,0.8-3.3,0.4c-0.2,0.5-0.4,1.1-0.7,1.6c-1.1,1.6-3,2.3-4.9,1.9
	c-0.8-0.2-1.5-0.8-1.6-1.7c-0.3-1.3,0.1-2.7,1-3.8L88.1,68.2z"/>
<path class="st0" d="M163.4,18.5l4,4c-1.1,1.5-2.6,2.6-3.9,4.1c-1.5-1.3-2.7-2.6-4.1-4L163.4,18.5z"/>
<path class="st0" d="M165.1,53.5l4.1-4.2l4,4.2c-0.7,0.7-1.3,1.3-2,2s-1.3,1.2-1.9,1.8C167.8,56.1,166.4,54.8,165.1,53.5z"/>
<path class="st0" d="M167.7,62.4l1-1.1l1,1c-0.2,0.2-0.3,0.3-0.5,0.5s-0.3,0.3-0.5,0.5C168.4,63,168.1,62.7,167.7,62.4z"/>
<path class="st0" d="M169.8,62.4l1-1.1l1,1c-0.2,0.2-0.3,0.3-0.5,0.5s-0.3,0.3-0.5,0.5C170.5,63,170.1,62.7,169.8,62.4z"/>
<path class="st0" d="M141.7,61.9l1-1.1l1,1c-0.2,0.2-0.3,0.3-0.5,0.5s-0.3,0.3-0.5,0.5C142.4,62.6,142,62.3,141.7,61.9z"/>
<path class="st0" d="M143.7,61.9l1-1.1l1,1c-0.2,0.2-0.3,0.3-0.5,0.5s-0.3,0.3-0.5,0.5C144.4,62.6,144.1,62.3,143.7,61.9z"/>
<path class="st0" d="M168.8,60.9l1-1.1l1,1c-0.2,0.2-0.3,0.3-0.5,0.5s-0.3,0.3-0.5,0.5C169.4,61.6,169.1,61.3,168.8,60.9z"/>
<path class="st0" d="M72.8,60.6l1-1.1l1,1c-0.2,0.2-0.3,0.3-0.5,0.5c-0.2,0.2-0.3,0.3-0.5,0.5C73.5,61.3,73.2,61,72.8,60.6z"/>
<path class="st0" d="M74.9,60.6l1-1.1l1,1c-0.2,0.2-0.3,0.3-0.5,0.5c-0.2,0.2-0.3,0.3-0.5,0.5C75.5,61.3,75.2,61,74.9,60.6z"/>
<path class="st0" d="M73.9,59.2l1-1.1l1,1c-0.2,0.2-0.3,0.3-0.5,0.5c-0.2,0.2-0.3,0.3-0.5,0.5C74.5,59.9,74.2,59.6,73.9,59.2z"/>
<path class="st0" d="M95.2,60.9l1-1.1l1,1c-0.2,0.2-0.3,0.3-0.5,0.5c-0.2,0.2-0.3,0.3-0.5,0.5C95.8,61.6,95.5,61.3,95.2,60.9z"/>
<path class="st0" d="M97.2,60.9l1-1.1l1,1c-0.2,0.2-0.3,0.3-0.5,0.5c-0.2,0.2-0.3,0.3-0.5,0.5C97.9,61.6,97.5,61.3,97.2,60.9z"/>
<path class="st0" d="M96.2,59.5l1-1.1l1,1c-0.2,0.2-0.3,0.3-0.5,0.5c-0.2,0.2-0.3,0.3-0.5,0.5C96.8,60.2,96.5,59.9,96.2,59.5z"/>
<path class="st0" d="M217.2,22.8c0.5,0.6,1.3,1,2.1,1c1.6,0.1,3.1,0.8,4.2,1.9c0.2,0.2,0.4,0.5,0.6,0.8c0.8,1.2,0.4,2-1,2.2
	s-2.7,0.5-4,0.7l-0.5,0.1c-0.5-0.5,0.1-0.9,0.1-1.4c0.1-0.9,0-1.2-0.9-1.4c-0.4-0.1-0.8-0.2-1.2-0.4c-0.3-0.2-0.6-0.6-0.7-1
	c-0.1-0.4,0.4-0.6,0.8-0.6c0.2,0,0.3-0.1,0.5-0.2L217.2,22.8L217.2,22.8z M221.4,27c-1.3-1.7-1.8-2-3-2
	C219,26.2,220.1,26.9,221.4,27L221.4,27z"/>
<path class="st0" d="M48.3,66.4l1-1.3c0.6,0.3,1,0.8,1.2,1.4c0.8,1.6,0.7,3.4-0.1,5c-1,1.8-2.3,2.6-4.5,1.3c-0.4-0.2-0.8-0.6-1.1-1
	c0.2,0,0.5,0,0.7,0c1.6,0.1,3.1-0.6,4-2c0.5-0.6,0.5-1.5,0-2.1C49.2,67.3,48.8,66.9,48.3,66.4z"/>
<path class="st0" d="M35.7,71.7c1.4,0.5,2.9,0.2,4-0.8c1.5-1.2,1.6-2.2,0.3-3.6c-0.3-0.2-0.5-0.5-0.8-0.7l1.1-1.6
	c0.9,0.7,1.4,1.7,1.6,2.8c0.3,1.2,0.1,2.5-0.5,3.6c-1,1.8-2.3,2.5-4.5,1.4c-0.2-0.1-0.4-0.3-0.7-0.5s-0.5-0.2-0.7-0.4L35.7,71.7z"/>
<path class="st0" d="M132.1,70.3c-0.3-2-0.6-3.8-0.8-5.6c-0.2-1.4,0-1.7,1.4-2.9c0.1,0.3,0.1,0.5,0.1,0.8c0.1,1.7,0.1,3.5,0.1,5.2
	C133.1,68.7,132.8,69.6,132.1,70.3z"/>
<path class="st0" d="M208,49.6c1.1-0.7,1.6-0.7,1.9-0.2c0.8,1.2,1.1,2.6,1.1,4c-1.2,0.2-2.3,0.3-3.2-0.8
	C208.6,51.7,209.3,50.8,208,49.6z"/>
<path class="st0" d="M85.7,65.8l-0.4,1.9l1.2,1.3l-1.1,1.4c-0.9-0.3-1.4-1.1-1.4-2.1C83.9,67.2,84.6,66.2,85.7,65.8z"/>
<path class="st0" d="M134.3,59.5c-0.3,1.2-1.3,2-2.5,1.9c-0.8-0.1-1.5,0.1-2.2,0.5l0.6-2C131.6,60.4,133.1,60.3,134.3,59.5z"/>
<path class="st0" d="M17.4,59.8c-0.3,0.5-0.4,0.7-0.5,0.7c-1.6,0.7-3.2,1.3-5,2c0.2-0.4,0.3-0.7,0.4-0.8
	C13.9,60.7,15.6,60.1,17.4,59.8z"/>
<path class="st0" d="M40,61l1.2,1.6l-1.1,1.1l-1.4-1.2L40,61z"/>
<path class="st0" d="M34.8,62.5l1.2-1.4l1.4,1.5l-1.2,1.1L34.8,62.5z"/>
<path class="st0" d="M104.4,61.1l1.1,1.3l-1.1,1.2l-1.2-1C103.3,61.9,103.8,61.6,104.4,61.1z"/>
<path class="st0" d="M211.8,46.3c1.3,0.4,1.8,1.3,1.8,2.9C212.7,48.5,212.1,47.5,211.8,46.3z"/>
<path class="st0" d="M231.4,54.8c-0.9-0.4-1.2-0.8-0.9-1.3c0.1-0.3,0.5-0.5,0.9-0.4c0,0,0.1,0,0.1,0.1
	C231.9,53.5,231.9,53.9,231.4,54.8z"/>
<path class="st0" d="M210.1,37.6c-0.2,0.2-0.4,0.5-0.5,0.5s-0.5-0.3-0.5-0.5s0.3-0.4,0.4-0.5L210.1,37.6z"/>
<path d="M50.7,72.6l-0.2-0.1c0,0,0.1,0,0.1,0C50.6,72.5,50.6,72.5,50.7,72.6L50.7,72.6z"/>
<path class="st1" d="M142.8,67.2c0.8-1.2,1.1-1.2,1.9,0.1C144,67.9,143.4,67.5,142.8,67.2z"/>
<path class="st1" d="M150.6,68c-0.7,0.5-1.2,0.1-1.7-0.1c-0.2-0.6,0.1-0.8,0.5-0.8S150,67,150.6,68z"/>
<path class="st1" d="M128.8,68.2c-0.6,0.3-1.4,0.3-2-0.2c-0.1-0.4,0.1-0.8,0.5-0.9c0.1,0,0.2,0,0.3,0
	C128.2,67,128.5,67.6,128.8,68.2z"/>
<path class="st1" d="M111,67.7c-0.7,0.6-1.1,0.6-1.6,0.3c-0.2-0.1-0.4-0.4-0.3-0.6s0.4-0.5,0.6-0.4C110.1,67.2,110.6,67.4,111,67.7z
	"/>
<path class="st1" d="M54,67.8c-0.1-0.5,0-0.8,0.5-0.8c0.7,0,1,0.3,1.1,1.1C55.1,68.2,54.5,68.1,54,67.8z"/>
<path class="st1" d="M221.4,27c-1.3-0.1-2.5-0.8-3-2C219.6,24.9,220.1,25.3,221.4,27z"/>
</svg>
