<svg xmlns="http://www.w3.org/2000/svg" viewBox="0 0 48 48"><defs><style>.cls-1{fill:#fff;}</style></defs><title>Asset 6</title><g id="Layer_2" data-name="Layer 2"><g id="OBJECTS"><path class="cls-1" d="M27.73,28.74a5.41,5.41,0,0,1-7.64,0L18.5,27.15l-8.27,8.27H37.59l-8.27-8.27Z"/><polygon class="cls-1" points="7.69 16.34 7.69 32.87 15.95 24.6 7.69 16.34"/><path class="cls-1" d="M25.18,26.19l12.4-12.4H10.23l12.4,12.4A1.81,1.81,0,0,0,25.18,26.19Z"/><polygon class="cls-1" points="40.13 32.87 40.13 16.34 31.87 24.6 40.13 32.87"/><path class="cls-1" d="M38.14,0H9.86A9.85,9.85,0,0,0,0,9.86V38.14A9.85,9.85,0,0,0,9.86,48H38.14A9.85,9.85,0,0,0,48,38.14V9.86A9.85,9.85,0,0,0,38.14,0Zm5.6,33.62A5.42,5.42,0,0,1,38.33,39H9.49a5.42,5.42,0,0,1-5.41-5.41v-18a5.42,5.42,0,0,1,5.41-5.41H38.33a5.42,5.42,0,0,1,5.41,5.41Z"/></g></g></svg>