<svg xmlns="http://www.w3.org/2000/svg" viewBox="0 0 48 48"><defs><style>.cls-1{fill:#fff;}</style></defs><title>Asset 4</title><g id="Layer_2" data-name="Layer 2"><g id="OBJECTS"><path class="cls-1" d="M32,29.08a.42.42,0,0,0-.59,0L28.7,31.7l-.78-.34a24.14,24.14,0,0,1-6.6-4.85,24.41,24.41,0,0,1-4.87-6.62l-.35-.79,2.61-2.65a.42.42,0,0,0,0-.6l-4.49-4.51a.41.41,0,0,0-.59,0l-2.16,2.14a2.81,2.81,0,0,0-.55,3.21,44.3,44.3,0,0,0,8.53,11.85A44,44,0,0,0,31.3,37.07a2.81,2.81,0,0,0,3.22-.55l2.15-2.16a.43.43,0,0,0,0-.6Z"/><path class="cls-1" d="M38.14,0H9.86A9.85,9.85,0,0,0,0,9.86V38.14A9.85,9.85,0,0,0,9.86,48H38.14A9.85,9.85,0,0,0,48,38.14V9.86A9.85,9.85,0,0,0,38.14,0Zm1.29,35.18-3.12,3.13a5.39,5.39,0,0,1-3.8,1.58,5.29,5.29,0,0,1-2.32-.54,47,47,0,0,1-12.53-9,47.07,47.07,0,0,1-9-12.53,5.37,5.37,0,0,1,1-6.12l3.13-3.1a1.58,1.58,0,0,1,2.24,0L21.47,15a1.59,1.59,0,0,1,0,2.23l-2.32,2.35a24.71,24.71,0,0,0,4,5.11,24.35,24.35,0,0,0,5.09,3.94l2.41-2.34a1.6,1.6,0,0,1,2.23,0l6.59,6.6A1.59,1.59,0,0,1,39.43,35.18Z"/></g></g></svg>