<svg xmlns="http://www.w3.org/2000/svg" viewBox="0 0 48 48"><defs><style>.cls-1{fill:#fff;}</style></defs><title>Asset 7</title><g id="Layer_2" data-name="Layer 2"><g id="OBJECTS"><path class="cls-1" d="M24.1,37.11c.81,0,2.31-2.12,3.19-6.23L20.74,31C21.73,35.05,23.29,37.12,24.1,37.11Z"/><path class="cls-1" d="M12.43,31.09a14.17,14.17,0,0,0,6.16,5A24.65,24.65,0,0,1,17,31Z"/><path class="cls-1" d="M23.72,9.22c-.81,0-2.31,2.12-3.2,6.23l6.56-.09C26.09,11.28,24.53,9.21,23.72,9.22Z"/><path class="cls-1" d="M18.24,10.42a14,14,0,0,0-6,5.14l4.55-.06A24.73,24.73,0,0,1,18.24,10.42Z"/><path class="cls-1" d="M16.15,23.27c0-1.37,0-2.74.13-4.08l-5.76.08A13.8,13.8,0,0,0,10,23.36a13.65,13.65,0,0,0,.67,4.06l5.77-.07A39.37,39.37,0,0,1,16.15,23.27Z"/><path class="cls-1" d="M35.38,15.24a14,14,0,0,0-6.15-5,24,24,0,0,1,1.6,5Z"/><path class="cls-1" d="M31.67,23.06c0,1.37,0,2.74-.14,4.08l5.77-.08a14.06,14.06,0,0,0-.11-8.16L31.42,19C31.57,20.32,31.65,21.69,31.67,23.06Z"/><path class="cls-1" d="M20,19.14a40.23,40.23,0,0,0-.15,4.08,38.73,38.73,0,0,0,.26,4.08l7.75-.11A40.23,40.23,0,0,0,28,23.11c0-1.48-.12-2.83-.26-4.08Z"/><path class="cls-1" d="M38.14,0H9.86A9.85,9.85,0,0,0,0,9.86V38.14A9.85,9.85,0,0,0,9.86,48H38.14A9.85,9.85,0,0,0,48,38.14V9.86A9.85,9.85,0,0,0,38.14,0Zm-14,40.8A17.64,17.64,0,1,1,41.54,22.92,17.65,17.65,0,0,1,24.15,40.8Z"/><path class="cls-1" d="M29.58,35.91a14,14,0,0,0,6-5.14l-4.54.06A24.73,24.73,0,0,1,29.58,35.91Z"/></g></g></svg>